<svg width="45" height="45" viewBox="0 0 45 45" fill="none" xmlns="http://www.w3.org/2000/svg">
<path d="M22.875 4C32.0071 4 39.7497 11.5616 39.75 20.7354C39.75 30.0554 31.8814 36.5965 24.6133 41.0439C24.0836 41.3429 23.4845 41.5 22.875 41.5C22.2655 41.5 21.6664 41.3429 21.1367 41.0439C13.8822 36.5531 6 30.0876 6 20.7354C6.00026 11.5616 13.7429 4 22.875 4ZM22.5625 14.25C18.9381 14.25 16 17.1881 16 20.8125C16 24.4369 18.9381 27.375 22.5625 27.375C26.1869 27.375 29.125 24.4369 29.125 20.8125C29.125 17.1881 26.1869 14.25 22.5625 14.25Z" fill="#171819"/>
</svg>
