<svg width="62" height="62" viewBox="0 0 62 62" fill="none" xmlns="http://www.w3.org/2000/svg">
<path d="M18.9978 46.5C13.5131 46.5 10.7707 46.5 8.81828 45.3293C7.5422 44.5641 6.51417 43.47 5.85069 42.1708C4.83555 40.1831 5.10842 37.5548 5.65417 32.2981C6.10975 27.91 6.33754 25.7159 7.45774 24.1046C8.19321 23.0467 9.18794 22.1796 10.354 21.58C12.1301 20.6667 14.4193 20.6667 18.9978 20.6667H43.0024C47.5809 20.6667 49.8701 20.6667 51.6462 21.58C52.8122 22.1796 53.807 23.0467 54.5424 24.1046C55.6626 25.7159 55.8904 27.91 56.346 32.2981C56.8917 37.5548 57.1646 40.1831 56.1495 42.1708C55.486 43.47 54.458 44.5641 53.1819 45.3293C51.2295 46.5 48.4871 46.5 43.0024 46.5" stroke="white" stroke-width="4"/>
<path d="M43.9166 20.6667V15.5C43.9166 10.6288 43.9166 8.19325 42.4033 6.67997C40.89 5.16669 38.4544 5.16669 33.5833 5.16669H28.4166C23.5454 5.16669 21.1098 5.16669 19.5965 6.67997C18.0833 8.19325 18.0833 10.6288 18.0833 15.5V20.6667" stroke="white" stroke-width="4" stroke-linejoin="round"/>
<path d="M36.1373 41.3333L25.8625 41.3333C24.0921 41.3333 23.207 41.3333 22.4538 41.6145C21.4496 41.9895 20.5898 42.7179 20.0109 43.684C19.5768 44.4085 19.3621 45.3402 18.9327 47.2037C18.2618 50.1153 17.9264 51.5712 18.1545 52.7385C18.4587 54.2948 19.4069 55.6124 20.7248 56.3101C21.7132 56.8333 23.0963 56.8333 25.8625 56.8333L36.1373 56.8333C38.9036 56.8333 40.2867 56.8333 41.2751 56.3101C42.593 55.6124 43.5411 54.2948 43.8453 52.7385C44.0735 51.5712 43.738 50.1153 43.0671 47.2037C42.6377 45.3402 42.423 44.4085 41.9889 43.684C41.4101 42.7179 40.5502 41.9895 39.546 41.6145C38.7929 41.3333 37.9077 41.3333 36.1373 41.3333Z" stroke="white" stroke-width="4" stroke-linejoin="round"/>
<path d="M46.5 31H46.5232" stroke="white" stroke-width="4" stroke-linecap="round" stroke-linejoin="round"/>
</svg>
